<svg width="360" height="203" viewBox="0 0 360 203" fill="none" xmlns="http://www.w3.org/2000/svg">
<path d="M148.267 0.878357C147.733 1.27836 147.333 3.67837 147.333 6.07837C147.333 9.8117 146.533 10.745 141.733 13.2784C130.667 18.8784 123.6 27.6784 109.467 52.8784C105.333 60.345 99.4667 69.545 96.5333 73.2784C91.6 79.545 81.6 87.945 79.2 87.945C78.5333 87.945 80.1333 84.0784 82.6667 79.4117C88 69.945 91.4667 54.8784 90.5333 45.545C89.3333 33.0117 82.4 25.2784 72.4 25.2784C62.6667 25.2784 56.6667 30.8784 54.8 41.8117L53.8667 47.0117L48.9333 42.345C42.5333 36.2117 39.3333 34.6117 32.9333 34.6117C18.2667 34.6117 9.46667 52.0784 16.5333 67.2784C22.9333 81.2784 45.7333 94.4784 63.7333 94.6117C66.4 94.6117 68.6667 94.8784 68.6667 95.145C68.6667 97.0117 51.8667 125.412 47.2 131.412C36.6667 145.145 27.8667 149.945 10 151.945L0 153.145L11.6 152.612C19.3333 152.212 25.3333 151.145 29.2 149.412C40.9333 144.212 52 131.412 65.8667 106.878C71.4667 97.0117 73.8667 94.2117 77.4667 92.6117C91.2 86.8784 99.2 77.6784 114.133 50.745C119.6 41.0117 127.067 29.545 130.933 25.4117C137.867 17.6784 146.667 12.0784 148.667 14.2117C149.2 14.745 158.8 45.145 170.133 81.545C181.333 117.945 190.8 147.545 191.067 147.278C191.333 147.145 183.6 117.278 174.133 81.0117C164.533 44.745 156.5 14 156.834 12.9448C156.834 10.5448 166.933 11.6784 175.333 14.6117C179.333 15.945 187.067 18.5782 187.334 18.4448C188.4 17.3782 169.733 10.745 162.933 9.94502C159.362 9.48205 156.834 8.94482 155.334 8.44482C154.334 7.44482 154.207 6.5614 153.333 4.47836C151.467 0.0783634 150 -0.98831 148.267 0.878357ZM152 7.01169C152 10.4784 149.333 10.345 148.933 6.74503C148.533 4.61169 149.067 3.8117 150.267 4.2117C151.2 4.6117 152 5.81169 152 7.01169ZM154.8 15.2784C155.333 17.145 155.2 19.145 154.8 19.6784C153.6 20.745 151.333 17.2784 151.333 14.2117C151.333 10.745 153.867 11.545 154.8 15.2784ZM80.4 31.545C89.8667 37.4117 89.4667 58.745 79.4667 78.345C73.2 90.6117 72.8 90.8784 64.4 90.745C49.4667 90.6117 30 81.145 22.6667 70.6117C13.3333 57.2784 18.9333 38.6117 32.2667 38.6117C38.5333 38.6117 43.4667 41.4117 49.8667 48.8784C55.8667 55.945 58 55.4117 58 46.8784C58 41.545 60.8 34.745 64.1333 31.8117C68.8 27.6784 74.2667 27.6784 80.4 31.545Z" fill="black"/>
<path d="M200.333 66.6669V132H226.333H252.333V167.467V202.934L276.733 202.4C297 201.867 302.466 201.2 310.333 198.8C329.533 192.667 347 178.934 354.6 164C357.933 157.467 358.5 154.5 359.5 144C360 132.5 357.5 129.5 354.5 122.5C349.167 111.567 336.066 99.3336 324.466 93.3336C311.933 87.0669 301.666 85.3336 275.4 85.3336H252.333L252.066 107.6L251.666 130L240.333 130.4C234.066 130.667 227.666 130.4 226.066 130L223 129.334V96.8003V64.2669L236.066 64.1336C243.133 64.0003 251 64.5336 253.533 65.3336C258.733 66.8003 263.933 71.2003 266.066 76.0003C267.533 79.0669 267.666 78.5336 268.066 71.6003C268.333 67.4669 268.333 60.5336 268.066 56.2669C267.666 49.3336 267.533 48.9336 266.066 52.1336C265.266 54.0003 262.6 57.2003 260.333 59.0669C256.333 62.5336 255.533 62.6669 239.533 62.6669H223V32.6669V2.66692H244.066C267.266 2.66692 271.4 3.86691 276.066 12.0002C277.266 14.1336 278.733 16.0002 279.266 16.0002C280.066 16.0002 279.5 6 279.266 2.44029C279 1.24029 268.866 1.33359 239 1.33359H200.333V66.6669ZM304.733 90.6669C326.6 101.2 340.866 128.8 336.733 152.534C332.066 180.134 308.2 201.334 282.466 201.334C271.133 201.334 271.666 203.067 271.266 165.334L270.866 132H277C281.933 132 283 131.6 283 129.467C283 128.134 283.4 124.934 283.8 122.534L284.6 118L281.533 121.6C278.733 124.667 273.8 128 271.933 128C271.533 128 271.266 118.667 271.266 107.2V86.4003L284.866 86.9336C295.4 87.3336 299.666 88.1336 304.733 90.6669Z" fill="black"/>
</svg>
